ffmpeg version 4.2.7-0ubuntu0.1 Copyright (c) 2000-2022 the FFmpeg developers
  built with gcc 9 (Ubuntu 9.4.0-1ubuntu1~20.04.1)
  configuration: --prefix=/usr --extra-version=0ubuntu0.1 --toolchain=hardened --libdir=/usr/lib/x86_64-linux-gnu --incdir=/usr/include/x86_64-linux-gnu --arch=amd64 --enable-gpl --disable-stripping --enable-avresample --disable-filter=resample --enable-avisynth --enable-gnutls --enable-ladspa --enable-libaom --enable-libass --enable-libbluray --enable-libbs2b --enable-libcaca --enable-libcdio --enable-libcodec2 --enable-libflite --enable-libfontconfig --enable-libfreetype --enable-libfribidi --enable-libgme --enable-libgsm --enable-libjack --enable-libmp3lame --enable-libmysofa --enable-libopenjpeg --enable-libopenmpt --enable-libopus --enable-libpulse --enable-librsvg --enable-librubberband --enable-libshine --enable-libsnappy --enable-libsoxr --enable-libspeex --enable-libssh --enable-libtheora --enable-libtwolame --enable-libvidstab --enable-libvorbis --enable-libvpx --enable-libwavpack --enable-libwebp --enable-libx265 --enable-libxml2 --enable-libxvid --enable-libzmq --enable-libzvbi --enable-lv2 --enable-omx --enable-openal --enable-opencl --enable-opengl --enable-sdl2 --enable-libdc1394 --enable-libdrm --enable-libiec61883 --enable-nvenc --enable-chromaprint --enable-frei0r --enable-libx264 --enable-shared
  libavutil      56. 31.100 / 56. 31.100
  libavcodec     58. 54.100 / 58. 54.100
  libavformat    58. 29.100 / 58. 29.100
  libavdevice    58.  8.100 / 58.  8.100
  libavfilter     7. 57.100 /  7. 57.100
  libavresample   4.  0.  0 /  4.  0.  0
  libswscale      5.  5.100 /  5.  5.100
  libswresample   3.  5.100 /  3.  5.100
  libpostproc    55.  5.100 / 55.  5.100
[rawvideo @ 0x55e1dc083780] Estimating duration from bitrate, this may be inaccurate
Input #0, rawvideo, from 'output.yuv':
  Duration: 00:00:04.80, start: 0.000000, bitrate: 2488320 kb/s
    Stream #0:0: Video: rawvideo (I420 / 0x30323449), yuv420p, 3840x2160, 2488320 kb/s, 25 tbr, 25 tbn, 25 tbc
Stream mapping:
  Stream #0:0 -> #0:0 (rawvideo (native) -> h264 (libx264))
Press [q] to stop, [?] for help
[libx264 @ 0x55e1dc088d80] using cpu capabilities: MMX2 SSE2Fast SSSE3 SSE4.2 AVX
[libx264 @ 0x55e1dc088d80] profile High, level 5.1
Output #0, h264, to 'output_h264.264':
  Metadata:
    encoder         : Lavf58.29.100
    Stream #0:0: Video: h264 (libx264), yuv420p, 3840x2160, q=-1--1, 30 fps, 30 tbn, 30 tbc
    Metadata:
      encoder         : Lavc58.54.100 libx264
    Side data:
      cpb: bitrate max/min/avg: 0/0/0 buffer size: 0 vbv_delay: -1
frame=   23 fps=0.0 q=0.0 size=       0kB time=00:00:00.00 bitrate=N/A speed=   0x    frame=   47 fps= 12 q=0.0 size=       0kB time=00:00:00.00 bitrate=N/A speed=   0x    frame=   52 fps= 11 q=0.0 size=       0kB time=00:00:00.00 bitrate=N/A speed=   0x    frame=   57 fps= 11 q=29.0 size=     512kB time=-00:00:00.03 bitrate=N/A speed=N/A    frame=   62 fps= 11 q=29.0 size=    1024kB time=00:00:00.13 bitrate=62914.7kbits/s speed=0.023x    frame=   63 fps=9.9 q=29.0 size=    1024kB time=00:00:00.16 bitrate=50331.5kbits/s speed=0.0261x    frame=   68 fps=9.8 q=29.0 size=    1280kB time=00:00:00.33 bitrate=31457.3kbits/s speed=0.0481x    frame=   71 fps=9.3 q=29.0 size=    1280kB time=00:00:00.43 bitrate=24197.9kbits/s speed=0.0565x    frame=   77 fps=9.3 q=29.0 size=    1536kB time=00:00:00.63 bitrate=19867.8kbits/s speed=0.0766x    frame=   83 fps=8.8 q=29.0 size=    2048kB time=00:00:00.83 bitrate=20132.7kbits/s speed=0.088x    frame=   88 fps=8.7 q=29.0 size=    2048kB time=00:00:01.00 bitrate=16777.2kbits/s speed=0.0987x    frame=   95 fps=8.7 q=29.0 size=    2560kB time=00:00:01.23 bitrate=17003.9kbits/s speed=0.113x    frame=  103 fps=9.0 q=29.0 size=    2816kB time=00:00:01.50 bitrate=15379.1kbits/s speed=0.131x    frame=  107 fps=8.7 q=29.0 size=    2816kB time=00:00:01.63 bitrate=14123.7kbits/s speed=0.132x    frame=  111 fps=8.5 q=29.0 size=    3072kB time=00:00:01.76 bitrate=14244.8kbits/s speed=0.135x    frame=  112 fps=6.5 q=29.0 size=    3072kB time=00:00:01.80 bitrate=13981.0kbits/s speed=0.104x    frame=  120 fps=6.7 q=29.0 size=    3584kB time=00:00:02.06 bitrate=14206.5kbits/s speed=0.116x    frame=  120 fps=3.1 q=-1.0 Lsize=    5587kB time=00:00:03.93 bitrate=11635.9kbits/s speed=0.101x    
video:5587kB audio:0kB subtitle:0kB other streams:0kB global headers:0kB muxing overhead: 0.000000%
[libx264 @ 0x55e1dc088d80] frame I:1     Avg QP:21.98  size:766550
[libx264 @ 0x55e1dc088d80] frame P:30    Avg QP:22.81  size:115892
[libx264 @ 0x55e1dc088d80] frame B:89    Avg QP:28.38  size: 16603
[libx264 @ 0x55e1dc088d80] consecutive B-frames:  0.8%  0.0%  2.5% 96.7%
[libx264 @ 0x55e1dc088d80] mb I  I16..4: 11.2% 68.3% 20.6%
[libx264 @ 0x55e1dc088d80] mb P  I16..4:  0.8%  3.1%  0.3%  P16..4: 38.0% 14.6% 11.5%  0.0%  0.0%    skip:31.7%
[libx264 @ 0x55e1dc088d80] mb B  I16..4:  0.3%  0.5%  0.0%  B16..8: 28.8%  1.1%  0.2%  direct: 0.4%  skip:68.6%  L0:45.0% L1:53.5% BI: 1.5%
[libx264 @ 0x55e1dc088d80] 8x8 transform intra:68.5% inter:79.2%
[libx264 @ 0x55e1dc088d80] coded y,uvDC,uvAC intra: 57.7% 49.2% 30.2% inter: 8.1% 14.2% 2.3%
[libx264 @ 0x55e1dc088d80] i16 v,h,dc,p: 58% 16%  5% 22%
[libx264 @ 0x55e1dc088d80] i8 v,h,dc,ddl,ddr,vr,hd,vl,hu: 20% 12% 15%  5% 11% 13%  9%  8%  6%
[libx264 @ 0x55e1dc088d80] i4 v,h,dc,ddl,ddr,vr,hd,vl,hu: 20% 12%  6%  5% 16% 17% 10%  8%  6%
[libx264 @ 0x55e1dc088d80] i8c dc,h,v,p: 62% 15% 18%  5%
[libx264 @ 0x55e1dc088d80] Weighted P-Frames: Y:0.0% UV:0.0%
[libx264 @ 0x55e1dc088d80] ref P L0: 62.3% 20.0% 13.8%  3.9%
[libx264 @ 0x55e1dc088d80] ref B L0: 90.1%  7.8%  2.1%
[libx264 @ 0x55e1dc088d80] ref B L1: 95.7%  4.3%
[libx264 @ 0x55e1dc088d80] kb/s:11441.99
